<svg width="43" height="42" viewBox="0 0 43 42" fill="none" xmlns="http://www.w3.org/2000/svg">
<path d="M14.3334 3.5V8.75" stroke="#292D32" stroke-width="2.5" stroke-miterlimit="10" stroke-linecap="round" stroke-linejoin="round"/>
<path d="M28.3334 3.5V8.75" stroke="#292D32" stroke-width="2.5" stroke-miterlimit="10" stroke-linecap="round" stroke-linejoin="round"/>
<path d="M6.45837 15.9075H36.2084" stroke="#292D32" stroke-width="2.5" stroke-miterlimit="10" stroke-linecap="round" stroke-linejoin="round"/>
<path d="M33.9509 27.5975L27.756 33.7925C27.511 34.0375 27.2834 34.4925 27.2309 34.825L26.8984 37.1875C26.7759 38.045 27.3709 38.64 28.2284 38.5175L30.591 38.185C30.9235 38.1325 31.3959 37.905 31.6234 37.66L37.8185 31.465C38.886 30.3975 39.3935 29.155 37.8185 27.58C36.261 26.0225 35.0184 26.53 33.9509 27.5975Z" stroke="#292D32" stroke-width="2.5" stroke-miterlimit="10" stroke-linecap="round" stroke-linejoin="round"/>
<path d="M33.0585 28.49C33.5835 30.38 35.0535 31.85 36.9435 32.375" stroke="#292D32" stroke-width="2.5" stroke-miterlimit="10" stroke-linecap="round" stroke-linejoin="round"/>
<path d="M21.3334 38.5H14.3334C8.20837 38.5 5.58337 35 5.58337 29.75V14.875C5.58337 9.625 8.20837 6.125 14.3334 6.125H28.3334C34.4584 6.125 37.0834 9.625 37.0834 14.875V21" stroke="#292D32" stroke-width="2.5" stroke-miterlimit="10" stroke-linecap="round" stroke-linejoin="round"/>
<path d="M21.3255 23.975H21.3412" stroke="#292D32" stroke-width="2.5" stroke-linecap="round" stroke-linejoin="round"/>
<path d="M14.8484 23.975H14.8641" stroke="#292D32" stroke-width="2.5" stroke-linecap="round" stroke-linejoin="round"/>
<path d="M14.8484 29.225H14.8641" stroke="#292D32" stroke-width="2.5" stroke-linecap="round" stroke-linejoin="round"/>
</svg>
