<svg width="29" height="28" viewBox="0 0 29 28" fill="none" xmlns="http://www.w3.org/2000/svg">
<path d="M8.3867 25.6667H20.6134C23.8334 25.6667 25.1167 23.695 25.2684 21.2917L25.875 11.655C26.0384 9.13504 24.0317 7.00004 21.5 7.00004C20.7884 7.00004 20.135 6.59171 19.8084 5.96171L18.9684 4.27004C18.4317 3.20837 17.0317 2.33337 15.8417 2.33337H13.17C11.9684 2.33337 10.5684 3.20837 10.0317 4.27004L9.1917 5.96171C8.86503 6.59171 8.2117 7.00004 7.50003 7.00004C4.96837 7.00004 2.9617 9.13504 3.12503 11.655L3.7317 21.2917C3.8717 23.695 5.1667 25.6667 8.3867 25.6667Z" stroke="white" stroke-width="2.5" stroke-linecap="round" stroke-linejoin="round"/>
<path d="M12.75 9.33337H16.25" stroke="white" stroke-width="2.5" stroke-linecap="round" stroke-linejoin="round"/>
<path d="M14.5 21C16.5884 21 18.2917 19.2966 18.2917 17.2083C18.2917 15.12 16.5884 13.4166 14.5 13.4166C12.4117 13.4166 10.7084 15.12 10.7084 17.2083C10.7084 19.2966 12.4117 21 14.5 21Z" stroke="white" stroke-width="2.5" stroke-linecap="round" stroke-linejoin="round"/>
</svg>
