<svg width="42" height="42" viewBox="0 0 42 42" fill="none" xmlns="http://www.w3.org/2000/svg">
<path d="M31.5 12.53C31.395 12.5125 31.2725 12.5125 31.1675 12.53C28.7525 12.4425 26.8275 10.465 26.8275 8.015C26.8275 5.5125 28.84 3.5 31.3425 3.5C33.845 3.5 35.8575 5.53 35.8575 8.015C35.84 10.465 33.915 12.4425 31.5 12.53Z" stroke="#292D32" stroke-width="2.5" stroke-linecap="round" stroke-linejoin="round"/>
<path d="M29.6975 25.27C32.095 25.6725 34.7375 25.2525 36.5925 24.01C39.06 22.365 39.06 19.67 36.5925 18.025C34.72 16.7825 32.0425 16.3625 29.645 16.7825" stroke="#292D32" stroke-width="2.5" stroke-linecap="round" stroke-linejoin="round"/>
<path d="M10.4475 12.53C10.5525 12.5125 10.675 12.5125 10.78 12.53C13.195 12.4425 15.12 10.465 15.12 8.015C15.12 5.5125 13.1075 3.5 10.605 3.5C8.10253 3.5 6.09003 5.53 6.09003 8.015C6.10753 10.465 8.03253 12.4425 10.4475 12.53Z" stroke="#292D32" stroke-width="2.5" stroke-linecap="round" stroke-linejoin="round"/>
<path d="M12.25 25.27C9.85252 25.6725 7.21002 25.2525 5.35502 24.01C2.88752 22.365 2.88752 19.67 5.35502 18.025C7.22752 16.7825 9.90501 16.3625 12.3025 16.7825" stroke="#292D32" stroke-width="2.5" stroke-linecap="round" stroke-linejoin="round"/>
<path d="M21 25.6025C20.895 25.585 20.7725 25.585 20.6675 25.6025C18.2525 25.515 16.3275 23.5375 16.3275 21.0875C16.3275 18.585 18.34 16.5725 20.8425 16.5725C23.345 16.5725 25.3575 18.6025 25.3575 21.0875C25.34 23.5375 23.415 25.5325 21 25.6025Z" stroke="#292D32" stroke-width="2.5" stroke-linecap="round" stroke-linejoin="round"/>
<path d="M15.9075 31.115C13.44 32.76 13.44 35.455 15.9075 37.1C18.7075 38.9725 23.2925 38.9725 26.0925 37.1C28.56 35.455 28.56 32.76 26.0925 31.115C23.31 29.26 18.7075 29.26 15.9075 31.115Z" stroke="#292D32" stroke-width="2.5" stroke-linecap="round" stroke-linejoin="round"/>
</svg>
