<svg width="43" height="42" viewBox="0 0 43 42" fill="none" xmlns="http://www.w3.org/2000/svg">
<path d="M39.1666 15.75V26.25C39.1666 30.625 38.2916 33.6875 36.3316 35.665L25.1666 24.5L38.6941 10.9725C39.0091 12.355 39.1666 13.93 39.1666 15.75Z" stroke="#292D32" stroke-width="2.5" stroke-linecap="round" stroke-linejoin="round"/>
<path d="M38.6941 10.9725L11.6391 38.0275C6.37161 36.82 4.16663 33.18 4.16663 26.25V15.75C4.16663 7 7.66663 3.5 16.4166 3.5H26.9166C33.8466 3.5 37.4866 5.70501 38.6941 10.9725Z" stroke="#292D32" stroke-width="2.5" stroke-linecap="round" stroke-linejoin="round"/>
<path d="M36.3316 35.665C34.3541 37.625 31.2916 38.5 26.9166 38.5H16.4166C14.5966 38.5 13.0216 38.3425 11.6391 38.0275L25.1666 24.5L36.3316 35.665Z" stroke="#292D32" stroke-width="2.5" stroke-linecap="round" stroke-linejoin="round"/>
<path d="M11.5866 13.965C12.7766 8.83751 20.4766 8.83751 21.6666 13.965C22.3491 16.975 20.4591 19.53 18.7966 21.105C17.5891 22.26 15.6816 22.26 14.4566 21.105C12.7941 19.53 10.8866 16.975 11.5866 13.965Z" stroke="#292D32" stroke-width="2.5"/>
<path d="M16.5822 15.225H16.5979" stroke="#292D32" stroke-width="2.5" stroke-linecap="round" stroke-linejoin="round"/>
</svg>
